<svg width="79" height="61" viewBox="0 0 79 61" fill="none" xmlns="http://www.w3.org/2000/svg">
<path d="M11.2188 60.6562H67.9375C71.3125 60.6562 73.8646 59.7917 75.5938 58.0625C77.3438 56.3542 78.2188 53.8333 78.2188 50.5V17.7188C78.2188 14.3854 77.3438 11.8646 75.5938 10.1562C73.8646 8.42708 71.3125 7.5625 67.9375 7.5625H59.5938C58.7604 7.5625 58.0833 7.51042 57.5625 7.40625C57.0625 7.28125 56.6042 7.07292 56.1875 6.78125C55.7917 6.48958 55.3438 6.08333 54.8438 5.5625L52.375 2.875C51.5625 2.02083 50.6771 1.38542 49.7188 0.96875C48.7812 0.53125 47.5208 0.3125 45.9375 0.3125H33.0938C31.4896 0.3125 30.2188 0.53125 29.2812 0.96875C28.3438 1.38542 27.4583 2.02083 26.625 2.875L24.1562 5.5625C23.4271 6.33333 22.7604 6.86458 22.1562 7.15625C21.5521 7.42708 20.6354 7.5625 19.4062 7.5625H11.2188C7.84375 7.5625 5.29167 8.42708 3.5625 10.1562C1.83333 11.8646 0.96875 14.3854 0.96875 17.7188V50.5C0.96875 53.8333 1.83333 56.3542 3.5625 58.0625C5.29167 59.7917 7.84375 60.6562 11.2188 60.6562ZM39.5938 50.875C37.2396 50.875 35.0417 50.4479 33 49.5938C30.9583 48.7188 29.1667 47.5104 27.625 45.9688C26.1042 44.4271 24.9062 42.6354 24.0312 40.5938C23.1562 38.5521 22.7188 36.3438 22.7188 33.9688C22.7188 31.6146 23.1562 29.4167 24.0312 27.375C24.9062 25.3333 26.1042 23.5417 27.625 22C29.1667 20.4583 30.9583 19.2604 33 18.4062C35.0417 17.5312 37.2396 17.0938 39.5938 17.0938C42.6979 17.0938 45.5312 17.8438 48.0938 19.3438C50.6562 20.8438 52.6875 22.875 54.1875 25.4375C55.6875 28 56.4375 30.8438 56.4375 33.9688C56.4375 36.3438 56 38.5521 55.125 40.5938C54.2708 42.6354 53.0729 44.4271 51.5312 45.9688C49.9896 47.5104 48.1979 48.7188 46.1562 49.5938C44.1146 50.4479 41.9271 50.875 39.5938 50.875ZM39.5938 45.2812C41.6771 45.2812 43.5729 44.7812 45.2812 43.7812C46.9896 42.7604 48.3438 41.3958 49.3438 39.6875C50.3646 37.9792 50.875 36.0729 50.875 33.9688C50.875 31.8854 50.3646 29.9896 49.3438 28.2812C48.3438 26.5729 46.9896 25.2083 45.2812 24.1875C43.5729 23.1667 41.6771 22.6562 39.5938 22.6562C37.5104 22.6562 35.6146 23.1667 33.9062 24.1875C32.1979 25.2083 30.8333 26.5729 29.8125 28.2812C28.7917 29.9896 28.2812 31.8854 28.2812 33.9688C28.2812 36.0729 28.7917 37.9792 29.8125 39.6875C30.8333 41.3958 32.1979 42.7604 33.9062 43.7812C35.6146 44.7812 37.5104 45.2812 39.5938 45.2812ZM58.4688 22.5C58.4688 21.3958 58.875 20.4375 59.6875 19.625C60.5208 18.7917 61.5104 18.375 62.6562 18.375C63.7604 18.375 64.7188 18.7917 65.5312 19.625C66.3646 20.4375 66.7812 21.3958 66.7812 22.5C66.7812 23.6667 66.3646 24.6458 65.5312 25.4375C64.7188 26.2292 63.7604 26.625 62.6562 26.625C61.5104 26.6458 60.5208 26.2604 59.6875 25.4688C58.875 24.6562 58.4688 23.6667 58.4688 22.5Z" fill="#C2D2D9"/>
</svg>
