<svg width="81" height="51" viewBox="0 0 81 51" fill="none" xmlns="http://www.w3.org/2000/svg">
<path d="M11.2188 50.7188H70.3125C73.6667 50.7188 76.2083 49.8542 77.9375 48.125C79.6875 46.3958 80.5625 43.8646 80.5625 40.5312V10.2812C80.5625 6.94792 79.6875 4.42708 77.9375 2.71875C76.2083 1.01042 73.6667 0.15625 70.3125 0.15625H11.2188C7.84375 0.15625 5.29167 1.01042 3.5625 2.71875C1.83333 4.42708 0.96875 6.94792 0.96875 10.2812V40.5312C0.96875 43.8854 1.83333 46.4167 3.5625 48.125C5.29167 49.8542 7.84375 50.7188 11.2188 50.7188ZM13.5312 18.0938C12.5521 18.0938 12.0625 17.5833 12.0625 16.5625V13.5625C12.0625 12.5417 12.5521 12.0312 13.5312 12.0312H16.5312C17.5729 12.0312 18.0938 12.5417 18.0938 13.5625V16.5625C18.0938 17.5833 17.5729 18.0938 16.5312 18.0938H13.5312ZM23.8125 18.0938C22.7917 18.0938 22.2812 17.5833 22.2812 16.5625V13.5625C22.2812 12.5417 22.7917 12.0312 23.8125 12.0312H26.8125C27.8125 12.0312 28.3125 12.5417 28.3125 13.5625V16.5625C28.3125 17.5833 27.8125 18.0938 26.8125 18.0938H23.8125ZM34.0938 18.0938C33.0729 18.0938 32.5625 17.5833 32.5625 16.5625V13.5625C32.5625 12.5417 33.0729 12.0312 34.0938 12.0312H37.0625C38.0833 12.0312 38.5938 12.5417 38.5938 13.5625V16.5625C38.5938 17.5833 38.0833 18.0938 37.0625 18.0938H34.0938ZM44.3438 18.0938C43.3438 18.0938 42.8438 17.5833 42.8438 16.5625V13.5625C42.8438 12.5417 43.3438 12.0312 44.3438 12.0312H47.3438C48.3646 12.0312 48.875 12.5417 48.875 13.5625V16.5625C48.875 17.5833 48.3646 18.0938 47.3438 18.0938H44.3438ZM54.6875 18.0938C53.625 18.0938 53.0938 17.5833 53.0938 16.5625V13.5625C53.0938 12.5417 53.625 12.0312 54.6875 12.0312H57.625C58.625 12.0312 59.125 12.5417 59.125 13.5625V16.5625C59.125 17.5833 58.625 18.0938 57.625 18.0938H54.6875ZM64.9062 18.0938C63.8646 18.0938 63.3438 17.5833 63.3438 16.5625V13.5625C63.3438 12.5417 63.8646 12.0312 64.9062 12.0312H67.875C68.875 12.0312 69.375 12.5417 69.375 13.5625V16.5625C69.375 17.5833 68.875 18.0938 67.875 18.0938H64.9062ZM13.5312 28.4375C12.5521 28.4375 12.0625 27.9271 12.0625 26.9062V23.9062C12.0625 22.8854 12.5521 22.375 13.5312 22.375H16.5312C17.5729 22.375 18.0938 22.8854 18.0938 23.9062V26.9062C18.0938 27.9271 17.5729 28.4375 16.5312 28.4375H13.5312ZM23.8125 28.4375C22.7917 28.4375 22.2812 27.9271 22.2812 26.9062V23.9062C22.2812 22.8854 22.7917 22.375 23.8125 22.375H26.8125C27.8125 22.375 28.3125 22.8854 28.3125 23.9062V26.9062C28.3125 27.9271 27.8125 28.4375 26.8125 28.4375H23.8125ZM34.0938 28.4375C33.0729 28.4375 32.5625 27.9271 32.5625 26.9062V23.9062C32.5625 22.8854 33.0729 22.375 34.0938 22.375H37.0625C38.0833 22.375 38.5938 22.8854 38.5938 23.9062V26.9062C38.5938 27.9271 38.0833 28.4375 37.0625 28.4375H34.0938ZM44.3438 28.4375C43.3438 28.4375 42.8438 27.9271 42.8438 26.9062V23.9062C42.8438 22.8854 43.3438 22.375 44.3438 22.375H47.3438C48.3646 22.375 48.875 22.8854 48.875 23.9062V26.9062C48.875 27.9271 48.3646 28.4375 47.3438 28.4375H44.3438ZM54.6875 28.4375C53.625 28.4375 53.0938 27.9271 53.0938 26.9062V23.9062C53.0938 22.8854 53.625 22.375 54.6875 22.375H57.625C58.625 22.375 59.125 22.8854 59.125 23.9062V26.9062C59.125 27.9271 58.625 28.4375 57.625 28.4375H54.6875ZM64.9062 28.4375C63.8646 28.4375 63.3438 27.9271 63.3438 26.9062V23.9062C63.3438 22.8854 63.8646 22.375 64.9062 22.375H67.875C68.875 22.375 69.375 22.8854 69.375 23.9062V26.9062C69.375 27.9271 68.875 28.4375 67.875 28.4375H64.9062ZM13.5312 38.7812C12.5521 38.7812 12.0625 38.2708 12.0625 37.25V34.25C12.0625 33.2292 12.5521 32.7188 13.5312 32.7188H16.5312C17.5729 32.7188 18.0938 33.2292 18.0938 34.25V37.25C18.0938 38.2708 17.5729 38.7812 16.5312 38.7812H13.5312ZM24.0938 38.7812C22.8854 38.7812 22.2812 38.1771 22.2812 36.9688V34.5C22.2812 33.3125 22.8854 32.7188 24.0938 32.7188H57.3438C58.5312 32.7188 59.125 33.3125 59.125 34.5V36.9688C59.125 38.1771 58.5312 38.7812 57.3438 38.7812H24.0938ZM64.9062 38.7812C63.8646 38.7812 63.3438 38.2708 63.3438 37.25V34.25C63.3438 33.2292 63.8646 32.7188 64.9062 32.7188H67.875C68.875 32.7188 69.375 33.2292 69.375 34.25V37.25C69.375 38.2708 68.875 38.7812 67.875 38.7812H64.9062Z" fill="#C2D2D9"/>
</svg>
