<svg width="50" height="50" viewBox="0 0 50 50" fill="none" xmlns="http://www.w3.org/2000/svg">
<path d="M25 0.5C20.1544 0.5 15.4175 1.9369 11.3885 4.62899C7.35954 7.32109 4.21931 11.1475 2.36496 15.6243C0.510615 20.101 0.0254337 25.0272 0.970772 29.7797C1.91611 34.5322 4.24951 38.8977 7.67589 42.3241C11.1023 45.7505 15.4678 48.0839 20.2203 49.0292C24.9728 49.9746 29.899 49.4894 34.3758 47.635C38.8525 45.7807 42.6789 42.6405 45.371 38.6115C48.0631 34.5825 49.5 29.8456 49.5 25C49.5 18.5022 46.9188 12.2705 42.3241 7.67588C37.7295 3.08124 31.4978 0.5 25 0.5ZM21.5 34.7839L12.75 26.0339L15.5336 23.25L21.5 29.2161L34.4675 16.25L37.26 19.0253L21.5 34.7839Z" fill="#42C27D"/>
</svg>
