<svg width="56" height="41" viewBox="0 0 56 41" fill="none" xmlns="http://www.w3.org/2000/svg">
<path d="M5.6236 0C2.52531 0 0 2.51946 0 5.61775V11.0209V17.9963V35.2924C0 38.3906 2.52531 40.916 5.6236 40.916H50.3744C53.4727 40.916 56 38.3906 56 35.2924V17.9963V11.0209V5.61775C56 2.51946 53.4727 0 50.3744 0H5.6236ZM5.6236 1.99742H50.3744C52.4007 1.99742 54.0026 3.59148 54.0026 5.61775V10.0183H1.99742V5.61775C1.99742 3.59148 3.59733 1.99742 5.6236 1.99742ZM1.99742 12.0177H54.0026V16.9937H1.99742V12.0177ZM1.99742 18.9911H54.0026V35.2924C54.0026 37.3186 52.4007 38.9185 50.3744 38.9185H5.6236C3.59733 38.9185 1.99742 37.3186 1.99742 35.2924V18.9911Z" fill="#0376BC"/>
</svg>
