<svg width="57" height="56" viewBox="0 0 57 56" fill="none" xmlns="http://www.w3.org/2000/svg">
<path d="M43.6224 31.7679L43.1165 30.2223C45.7858 28.4275 47.5797 25.2084 47.5993 21.5264C48.3292 19.8128 48.1873 17.2499 47.548 15.4513C46.3738 12.1483 43.0605 9.6516 39.3038 9.23627C39.274 9.23347 39.2357 9.22973 39.2021 9.226V5.6V0.933333C39.2021 0.418133 38.784 0 38.2688 0H33.6021H24.2678H19.6012C19.086 0 18.6678 0.418133 18.6678 0.933333V5.6V8.8144L18.0938 8.2404L14.7936 4.94013C14.4286 4.5752 13.8388 4.5752 13.4738 4.94013L10.1736 8.2404L3.57397 14.84L0.2737 18.1403C-0.0912333 18.5052 -0.0912333 19.0951 0.2737 19.46L3.57397 22.7603L6.01557 25.2H5.60117H0.9345C0.4193 25.2 0.00116662 25.6181 0.00116662 26.1333V30.8V40.1333V44.8C0.00116662 45.3152 0.4193 45.7333 0.9345 45.7333H5.60117H20.5345V55.0667C20.5345 55.5819 20.9526 56 21.4678 56H55.0678C55.583 56 56.0012 55.5819 56.0012 55.0667V45.7333C56.0012 38.0016 50.7241 32.1291 43.6224 31.7679ZM42.0012 34.6089V36.8881L40.1018 36.1284L42.0012 34.6089ZM34.5345 34.5651L35.6713 35.49L36.4488 36.1228L34.5345 36.8881V34.5651ZM41.444 31.1155L41.8462 32.3419L38.2725 35.1997L34.6913 32.2849L34.8089 31.934L35.0842 31.1127C35.1309 31.1313 35.1794 31.1444 35.2261 31.1621C35.3894 31.2247 35.5546 31.2825 35.7217 31.3348C35.8421 31.3721 35.9625 31.4057 36.0838 31.4375C36.2378 31.4785 36.3918 31.5187 36.5486 31.5504C36.6877 31.5793 36.8277 31.5999 36.9668 31.6213C36.9696 31.6223 36.9714 31.6232 36.9733 31.6241C36.9742 31.6241 36.9742 31.6241 36.9752 31.6241C36.9798 31.6251 36.9854 31.626 36.991 31.6269C37.005 31.6288 37.0928 31.6437 37.1068 31.6456C37.1152 31.6465 37.1217 31.6465 37.1301 31.6484C37.2216 31.6605 37.313 31.6755 37.4054 31.6848C37.468 31.6913 37.5296 31.6932 37.5921 31.6988C37.8254 31.7193 38.0485 31.7333 38.2632 31.7333C38.2641 31.7333 38.266 31.7333 38.2678 31.7333C38.3509 31.7333 38.4312 31.7221 38.5142 31.7193C38.7186 31.7137 38.924 31.7063 39.1274 31.6848C39.1909 31.6783 39.2544 31.6708 39.3188 31.6633C39.3225 31.6633 39.3253 31.6633 39.329 31.6624C39.3468 31.6605 39.3636 31.6549 39.3813 31.6521C39.4382 31.6447 39.4942 31.6325 39.5512 31.6232C39.6958 31.6008 39.8405 31.5803 39.9852 31.5504C40.1401 31.5187 40.2913 31.4795 40.4434 31.4393C40.5666 31.4067 40.6898 31.3731 40.8112 31.3348C40.9773 31.2825 41.1416 31.2256 41.304 31.1631C41.3506 31.1472 41.3982 31.1341 41.444 31.1155ZM41.5588 28.9987C41.556 29.0005 41.5522 28.9996 41.5494 29.0015C41.0324 29.2871 40.4948 29.5008 39.9478 29.6445C39.9422 29.6464 39.9357 29.6473 39.9301 29.6492C39.6669 29.7173 39.4009 29.7687 39.134 29.8032C39.1209 29.8051 39.1078 29.8069 39.0948 29.8088C38.5814 29.8732 38.0644 29.8723 37.5501 29.8153C37.4773 29.8069 37.4073 29.7995 37.3242 29.7873C37.1674 29.7649 37.0106 29.7304 36.8548 29.6968C36.8006 29.6856 36.7465 29.6744 36.6933 29.6632C36.6298 29.6492 36.5664 29.6324 36.5029 29.6156C36.3386 29.5699 36.1772 29.5129 36.0148 29.4551C36.0138 29.4551 36.0138 29.4541 36.0129 29.4541C36.012 29.4541 36.011 29.4532 36.0101 29.4532C35.9392 29.4271 35.8682 29.4009 35.7982 29.3739C35.7254 29.3449 35.6526 29.3151 35.5808 29.2833C35.4464 29.2245 35.3129 29.1611 35.1804 29.0929L35.1794 29.092L35.171 29.0873C34.9713 28.9847 34.7706 28.882 34.5812 28.7607C34.5336 28.7299 34.4878 28.6963 34.4402 28.6645C34.2209 28.5161 34.009 28.3565 33.8056 28.1848C33.7645 28.1503 33.7225 28.1167 33.6824 28.0812C33.2017 27.6584 32.7658 27.1684 32.3608 26.5851C32.357 26.5795 32.3533 26.5739 32.3496 26.5692C32.1648 26.2985 31.9968 26.0176 31.8484 25.7367C31.8381 25.718 31.8278 25.6993 31.8176 25.6807C31.4965 25.0619 31.251 24.402 31.0812 23.7197C31.0681 23.6665 31.0569 23.6115 31.0438 23.5583C30.9794 23.2811 30.9309 23.0011 30.8926 22.7183C30.8824 22.6417 30.8702 22.5661 30.8618 22.4896C30.8245 22.1499 30.8012 21.8092 30.8012 21.4667C30.8012 21.4657 30.8012 21.4648 30.8012 21.4639H30.8021C30.803 21.4461 30.8068 21.3724 30.8068 21.3528C30.8068 21.3528 30.8068 21.3528 30.8068 21.3519C30.8086 21.2175 30.8208 21.0868 30.8273 20.9533C31.2044 21.0159 31.5973 21.0289 31.9893 21.0065C32.0014 21.0056 32.0136 21.0056 32.0257 21.0047C32.4093 20.9813 32.7873 20.9272 33.1429 20.8572C33.1681 20.8525 33.1924 20.8469 33.2185 20.8413C33.3697 20.8105 33.5153 20.7769 33.6553 20.7424C33.6777 20.7368 33.7001 20.7321 33.7216 20.7265C33.8718 20.6883 34.0146 20.6481 34.1472 20.6089C34.178 20.5996 34.2032 20.5921 34.2321 20.5828C34.331 20.5529 34.4225 20.524 34.5084 20.4951C34.542 20.4839 34.5737 20.4736 34.6045 20.4633C34.6997 20.4307 34.7874 20.3999 34.8593 20.3737C35.2354 20.2347 35.592 20.0788 35.9382 19.9173C35.9392 19.9164 35.941 19.9173 35.942 19.9164C35.942 19.9164 35.9494 19.9136 35.9597 19.908C35.9644 19.9061 35.969 19.9043 35.9737 19.9015C35.9802 19.8987 36.0624 19.8613 36.068 19.8585C36.0754 19.8557 36.082 19.852 36.0894 19.8483C36.0894 19.8483 36.0894 19.8483 36.0904 19.8483C36.0941 19.8464 36.095 19.8436 36.0988 19.8417C36.4618 19.6672 36.8072 19.4843 37.1348 19.2948L37.1478 19.2873C37.1488 19.2873 37.1488 19.2864 37.1497 19.2864C37.4409 19.1175 37.7162 18.9457 37.9776 18.7721C37.9785 18.7712 37.9804 18.7712 37.9813 18.7703L38.0149 18.7479C38.6309 18.3372 39.1638 17.9275 39.5894 17.5663C39.8685 18.4921 40.3436 19.6635 41.1061 20.7265C41.1313 20.7611 41.1528 20.7965 41.1789 20.8311C41.1808 20.8339 41.1836 20.8339 41.1854 20.8367C41.1873 20.8395 41.1882 20.8432 41.1901 20.846C41.1966 20.8544 41.2032 20.8628 41.2097 20.8712C41.2937 20.9823 41.3814 21.0915 41.472 21.1988C41.4934 21.2249 41.513 21.252 41.5354 21.2781C41.5392 21.2828 41.5457 21.2847 41.5504 21.2893C41.7893 21.5665 42.045 21.8353 42.3334 22.0789C42.3848 22.1228 42.452 22.1769 42.5294 22.2367C42.5509 22.2535 42.577 22.2721 42.6004 22.2889C42.662 22.3356 42.7264 22.3832 42.8001 22.4345C42.8346 22.4588 42.8729 22.4821 42.9093 22.5073C42.9812 22.5559 43.054 22.6035 43.1342 22.652C43.179 22.6791 43.2257 22.7052 43.2724 22.7323C43.3536 22.7789 43.4348 22.8247 43.5216 22.8695C43.5748 22.8965 43.628 22.9217 43.683 22.9469C43.7708 22.9889 43.8604 23.0272 43.9528 23.0645C44.0116 23.0879 44.0704 23.1093 44.131 23.1299C44.2253 23.1625 44.3196 23.1915 44.4166 23.2167C44.4801 23.2335 44.5436 23.2493 44.6089 23.2624C44.7069 23.2829 44.8049 23.296 44.9038 23.3063C44.971 23.3137 45.0373 23.3212 45.1054 23.3231C45.1381 23.324 45.1698 23.3315 45.2025 23.3315C45.2772 23.3315 45.3528 23.3184 45.4274 23.3109C45.4704 23.3072 45.5133 23.3119 45.5572 23.3063C45.055 25.8104 43.5561 27.8899 41.5588 28.9987ZM45.7886 16.0776C46.4326 17.8892 46.2889 19.9201 45.8381 20.888C45.8334 20.8964 45.826 20.902 45.8222 20.9095C45.6869 21.1867 45.531 21.3724 45.3817 21.434C44.9934 21.5899 44.1385 21.1605 43.5374 20.6519C43.3228 20.4708 43.1296 20.2692 42.9494 20.0592C42.857 19.9519 42.7702 19.8417 42.6862 19.7307C42.6834 19.7269 42.6806 19.7232 42.6778 19.7195C42.6778 19.7195 42.6778 19.7185 42.6769 19.7185C42.676 19.7167 42.6741 19.7148 42.6732 19.7129C42.5901 19.6009 42.5117 19.4871 42.437 19.3723C42.437 19.3723 42.4361 19.3713 42.4361 19.3704C42.4361 19.3704 42.4361 19.3695 42.4352 19.3695C42.4352 19.3685 42.4342 19.3685 42.4342 19.3685C41.6978 18.2299 41.331 16.9531 41.1705 16.2297L41.1556 16.1625C41.1416 16.0972 41.1285 16.0347 41.1182 15.9805L41.1154 15.9684C41.1061 15.9189 41.0986 15.8788 41.0921 15.8405L41.0594 15.638C41.0585 15.6305 41.0529 15.624 41.052 15.6165C41.0352 15.5157 41.0006 15.4215 40.954 15.3337C40.9372 15.3011 40.9176 15.2731 40.897 15.2432C40.8541 15.1816 40.8056 15.1265 40.7496 15.0771C40.7244 15.0547 40.7038 15.0304 40.6758 15.0108C40.5956 14.9529 40.5078 14.9053 40.4108 14.8755C40.4061 14.8736 40.4005 14.8745 40.3958 14.8727C40.3753 14.8671 40.3529 14.8671 40.3324 14.8624C40.2689 14.8484 40.2064 14.8344 40.1429 14.8335C40.1401 14.8335 40.1373 14.8325 40.1345 14.8325C40.1252 14.8325 40.1158 14.8381 40.1065 14.8381C40.0916 14.8381 40.0776 14.8428 40.0626 14.8437C40.0449 14.8447 40.029 14.8381 40.0113 14.84C39.9945 14.8428 39.9805 14.8531 39.9637 14.8559C39.9086 14.8661 39.8564 14.8811 39.805 14.9007C39.7752 14.9119 39.7472 14.924 39.7192 14.938C39.7117 14.9417 39.7033 14.9445 39.6958 14.9483C39.6828 14.9548 39.6688 14.9576 39.6566 14.9651C39.5773 15.0127 39.5036 15.0705 39.4392 15.1415C39.4186 15.1648 37.3364 17.4655 34.2116 18.6209C34.0436 18.6835 33.869 18.7413 33.6917 18.7945C33.5592 18.8347 33.4248 18.8692 33.2904 18.9037C33.2456 18.9149 33.2017 18.9289 33.1578 18.9392C33.0038 18.9756 32.8498 19.0073 32.6986 19.0344C32.6753 19.0391 32.651 19.0447 32.6277 19.0484C32.4653 19.0764 32.3057 19.0988 32.1517 19.1156C32.1405 19.1165 32.1284 19.1193 32.1181 19.1203C31.9557 19.1371 31.798 19.1464 31.6505 19.1473C31.6486 19.1473 31.6477 19.1473 31.6458 19.1473C31.4965 19.1483 31.3556 19.1417 31.2268 19.1259H31.2258C31.1026 19.1109 30.9925 19.0857 30.8936 19.0531C30.888 19.0512 30.8805 19.0503 30.8749 19.0484C30.789 19.0185 30.72 18.9784 30.6584 18.9345C30.6276 18.9121 30.5874 18.8963 30.5632 18.8701C30.5622 18.8692 30.5622 18.8683 30.5613 18.8683C30.5342 18.8384 30.5137 18.7964 30.4922 18.7572C30.4801 18.7357 30.4661 18.7199 30.4558 18.6956C30.4362 18.6489 30.4222 18.5911 30.4073 18.5351C30.4008 18.5099 30.3914 18.4903 30.3868 18.4641C30.3737 18.3969 30.3672 18.3213 30.3616 18.2439C30.3597 18.2215 30.355 18.2019 30.3541 18.1785C30.3494 18.0749 30.3513 17.9648 30.3588 17.8472C30.4577 16.4621 31.5105 14.2044 33.2661 12.7493C33.5237 12.5356 33.7897 12.3545 34.0566 12.1903C34.1509 12.1324 34.2461 12.0829 34.3413 12.0297C34.5149 11.9336 34.6885 11.844 34.863 11.7647C34.9722 11.7152 35.0805 11.6676 35.1888 11.6247C35.3568 11.5584 35.522 11.5015 35.6872 11.4492C35.7852 11.4184 35.885 11.382 35.9812 11.3549C36.2229 11.2887 36.46 11.2336 36.6886 11.1925C36.7745 11.1767 36.8529 11.1683 36.936 11.1552C37.0974 11.1309 37.2561 11.1085 37.4073 11.0936C37.4838 11.0861 37.5585 11.0796 37.6313 11.0749C37.7937 11.0637 37.9505 11.0553 38.0952 11.0525C38.1325 11.0516 38.1745 11.0497 38.21 11.0497C38.5982 11.0479 38.9109 11.0712 39.1032 11.0927C42.1122 11.4249 44.8628 13.4755 45.7886 16.0776ZM37.3345 1.86667V4.54907C36.0241 4.21027 34.9909 3.17707 34.6521 1.86667H37.3345ZM20.5345 1.86667H23.2169C22.8781 3.17707 21.8449 4.21027 20.5345 4.54907V1.86667ZM20.5345 6.44933C22.8744 6.05453 24.7214 4.20653 25.1172 1.86667H32.7528C33.1476 4.20653 34.9956 6.0536 37.3354 6.44933V9.2232C37.0881 9.24467 36.8184 9.282 36.5393 9.32867C36.4609 9.34173 36.3834 9.3548 36.3041 9.36973C36.2098 9.38747 36.1146 9.40707 36.0185 9.42853C35.9074 9.4528 35.7945 9.47987 35.6816 9.5088C35.6013 9.52933 35.5229 9.54893 35.4417 9.57133C35.269 9.61987 35.0945 9.674 34.919 9.73373C34.8901 9.744 34.8621 9.75147 34.8332 9.76173C34.6222 9.83547 34.4094 9.9204 34.1957 10.0137C34.1462 10.0352 34.0968 10.0604 34.0464 10.0837C33.8812 10.1593 33.7169 10.2405 33.5517 10.3283C33.5218 10.3441 33.4929 10.3563 33.463 10.3721C33.1056 9.23253 32.0546 8.4 30.8012 8.4C30.5538 8.4 30.3158 8.498 30.1413 8.67347L26.7402 12.0745C26.3874 11.9411 26.1345 11.5995 26.1345 11.2C26.1345 10.6857 26.5536 10.2667 27.0678 10.2667V8.4C25.8526 8.4 24.826 9.18307 24.4396 10.2667H23.3345V12.1333H24.4396C24.826 13.2169 25.8526 14 27.0678 14C27.3152 14 27.5532 13.902 27.7277 13.7265L31.1288 10.3255C31.4816 10.4589 31.7345 10.8005 31.7345 11.2C31.7345 11.7143 31.3154 12.1333 30.8012 12.1333V12.5925C29.5094 14.1344 28.6125 16.0655 28.4949 17.7147C28.4734 18.0189 28.4893 18.3017 28.5229 18.5724C28.5266 18.6041 28.521 18.6405 28.5257 18.6713L20.5345 10.6811V6.44933ZM16.0302 8.81627C14.8654 9.5032 13.4029 9.5032 12.2381 8.81627L14.1346 6.91973L16.0302 8.81627ZM4.15077 16.9027C4.8377 18.0684 4.8377 19.53 4.15077 20.6948L2.25423 18.7983L4.15077 16.9027ZM5.4873 22.0323C6.86023 20.0993 6.86023 17.4991 5.4873 15.5661L10.9006 10.1528C11.8666 10.8397 12.9969 11.1972 14.1337 11.1972C15.2705 11.1972 16.4008 10.8397 17.3668 10.1528L18.9413 11.7273L28.9373 21.7233C28.941 21.8923 28.9578 22.0612 28.969 22.2292C28.9765 22.3459 28.9793 22.4625 28.9914 22.5783C29.012 22.7827 29.0446 22.9861 29.0764 23.1887C29.1249 23.5032 29.1874 23.8121 29.2612 24.1173C29.2826 24.2051 29.2994 24.2947 29.3228 24.3824C29.3778 24.5868 29.4441 24.7856 29.5104 24.9853C29.5337 25.0563 29.5524 25.1291 29.5776 25.2H18.6678V20.0779C19.057 19.9089 19.5853 19.9696 19.8746 20.2599C20.2414 20.6267 20.2414 21.3733 19.8746 21.7401L21.1944 23.0599C22.0624 22.1919 22.2322 20.8115 21.7273 19.7269L22.1277 19.3265L20.808 18.0068L20.4076 18.4072C19.323 17.9023 17.9426 18.0721 17.0746 18.9401C16.8992 19.1147 16.8012 19.3527 16.8012 19.6V24.7791C16.4213 24.9256 15.8949 24.8397 15.5944 24.5401C15.2276 24.1733 15.2276 23.4267 15.5944 23.0599L14.2746 21.7401C13.3721 22.6427 13.2246 24.0987 13.8061 25.2H8.65503L5.4873 22.0323ZM1.86783 27.0667H4.55023C4.21143 28.3771 3.17823 29.4103 1.86783 29.7491V27.0667ZM1.86783 43.8667V41.1843C3.17823 41.5231 4.21143 42.5563 4.55023 43.8667H1.86783ZM6.4505 43.8667C6.05477 41.5268 4.2077 39.6797 1.86783 39.284V31.6493C4.2077 31.2545 6.05477 29.4065 6.4505 27.0667H8.26863H30.454C30.4568 27.0723 30.4614 27.0779 30.4642 27.0825C30.5454 27.2188 30.6322 27.3485 30.719 27.4801C30.7638 27.5483 30.8012 27.6117 30.8488 27.6817C30.8665 27.7079 30.888 27.7293 30.9066 27.7545C31.1213 28.0579 31.3481 28.3509 31.5917 28.6253C31.601 28.6365 31.6104 28.6487 31.6197 28.6599C31.8782 28.9492 32.1526 29.2189 32.4401 29.4728C32.4541 29.4849 32.4653 29.4989 32.4784 29.5111C32.4784 29.512 32.5689 29.5876 32.5698 29.5876C32.6902 29.6893 32.8134 29.7883 32.9422 29.8872C33.0458 29.9665 33.1522 30.0412 33.2596 30.1159C33.3118 30.1523 33.3576 30.1877 33.4126 30.2251L33.1186 31.1015L32.9236 31.6839C32.791 31.6904 32.6632 31.7109 32.5316 31.7212C32.3524 31.7352 32.1732 31.7511 31.9968 31.7725C31.7448 31.8033 31.4974 31.8435 31.251 31.8883C31.0793 31.9191 30.9076 31.948 30.7396 31.9853C30.4913 32.0404 30.2486 32.1095 30.0069 32.1785C29.8492 32.2243 29.6886 32.2635 29.5337 32.3148C29.2705 32.4016 29.0148 32.5043 28.76 32.6079C28.6349 32.6583 28.5061 32.7003 28.3829 32.7553C28.0245 32.914 27.6764 33.0904 27.3366 33.2817C27.1686 33.376 27.009 33.4843 26.8457 33.5869C26.6702 33.6971 26.4929 33.8035 26.323 33.922C26.1457 34.0452 25.9777 34.1796 25.8078 34.3112C25.6641 34.4223 25.5204 34.5324 25.3813 34.65C25.2058 34.7984 25.0378 34.9561 24.8698 35.1139C24.7504 35.2277 24.6309 35.3407 24.5152 35.4592C24.3434 35.6347 24.1782 35.8148 24.0168 36.0005C23.9206 36.1116 23.8254 36.2236 23.733 36.3384C23.565 36.5437 23.4026 36.7528 23.2468 36.9693C23.1777 37.0664 23.1114 37.1653 23.0442 37.2652C22.8781 37.5097 22.7157 37.758 22.5636 38.0156C22.53 38.0735 22.4992 38.1341 22.4656 38.1929C21.5182 39.8608 20.8882 41.7769 20.6512 43.8667H6.4505ZM54.1345 54.1333H49.4678V44.8H47.6012V54.1333H28.9345V44.8H27.0678V54.1333H22.4012V45.7333C22.4012 45.4365 22.4208 45.1472 22.4385 44.8579C22.4385 44.8569 22.4385 44.8569 22.4394 44.856C22.488 44.0449 22.6037 43.2619 22.7782 42.5105C22.781 42.4984 22.7838 42.4853 22.7866 42.4732C22.8697 42.1204 22.9677 41.7769 23.0769 41.4391C23.0881 41.4055 23.0974 41.3719 23.1086 41.3383C23.2132 41.0237 23.3308 40.7185 23.4577 40.4189C23.4801 40.3648 23.5025 40.3107 23.5258 40.2575C23.6472 39.9812 23.7788 39.7133 23.9178 39.4501C23.9561 39.3792 23.9925 39.3073 24.0317 39.2364C24.1652 38.9956 24.307 38.7632 24.4554 38.5355C24.5105 38.4505 24.5656 38.3656 24.6225 38.2825C24.7653 38.0753 24.9146 37.8747 25.0686 37.6787C25.1424 37.5853 25.2161 37.4939 25.2917 37.4033C25.441 37.2251 25.5969 37.0524 25.7565 36.8844C25.847 36.7892 25.9394 36.6949 26.0337 36.6035C26.1896 36.4504 26.351 36.3029 26.5153 36.1601C26.6236 36.0668 26.7328 35.9753 26.8438 35.8867C27.0053 35.7569 27.1705 35.6319 27.3394 35.5124C27.4636 35.4247 27.5905 35.3397 27.7184 35.2576C27.8854 35.1493 28.0544 35.0448 28.227 34.9468C28.3661 34.8675 28.508 34.7937 28.6498 34.72C28.8216 34.6323 28.9952 34.5473 29.1716 34.468C29.3246 34.3999 29.4805 34.3383 29.6382 34.2776C29.8137 34.2095 29.9892 34.1432 30.1693 34.0844C30.3364 34.0293 30.5072 33.9817 30.6789 33.9351C30.8562 33.8865 31.0336 33.8389 31.2146 33.7988C31.3957 33.7587 31.5814 33.7279 31.7662 33.6971C31.9445 33.6672 32.1237 33.6373 32.3048 33.6168C32.4252 33.6028 32.5474 33.5981 32.6697 33.5879V38.2667C32.6697 38.5765 32.8237 38.8659 33.0794 39.0395C33.2344 39.1459 33.4173 39.2 33.6012 39.2C33.7178 39.2 33.8354 39.1785 33.9484 39.1337L38.2678 37.4052L42.5873 39.1328C42.7002 39.1785 42.8178 39.2 42.9345 39.2C43.1184 39.2 43.3013 39.1459 43.4581 39.0395C43.7138 38.8659 43.8678 38.5765 43.8678 38.2667V33.6504C49.8682 34.1171 54.1345 39.046 54.1345 45.7333V54.1333Z" fill="#0376BC"/>
<path d="M16.86 33.2724C16.9935 32.9196 17.3351 32.6667 17.7345 32.6667C18.2488 32.6667 18.6679 33.0857 18.6679 33.6H20.5345C20.5345 32.3848 19.7515 31.3581 18.6679 30.9717V29.8667H16.8012V30.9717C15.7176 31.3581 14.9345 32.3848 14.9345 33.6C14.9345 33.8473 15.0325 34.0853 15.208 34.2599L18.6091 37.6609C18.4756 38.0137 18.134 38.2667 17.7345 38.2667C17.2203 38.2667 16.8012 37.8476 16.8012 37.3333H14.9345C14.9345 38.5485 15.7176 39.5752 16.8012 39.9616V41.0667H18.6679V39.9616C19.7515 39.5752 20.5345 38.5485 20.5345 37.3333C20.5345 37.086 20.4365 36.848 20.2611 36.6735L16.86 33.2724Z" fill="#0376BC"/>
</svg>
