<svg width="73" height="56" viewBox="0 0 73 56" fill="none" xmlns="http://www.w3.org/2000/svg">
<path d="M52.2061 56H10.5993C10.0003 56 9.51468 55.5144 9.51468 54.9154V31.9894C9.51468 31.3903 10.0003 30.9047 10.5993 30.9047C11.1983 30.9047 11.6839 31.3903 11.6839 31.9894V53.8291H52.2061C52.8051 53.8291 53.2908 54.3147 53.2908 54.9138C53.2908 55.5128 52.8051 55.9984 52.2061 55.9984V56Z" fill="#0376BC"/>
<path d="M40.5681 33.195C38.786 33.1941 37.1112 32.3434 36.0594 30.9047C35.0072 32.3419 33.3328 33.1913 31.5516 33.1913C29.7704 33.1913 28.096 32.3419 27.0438 30.9047C25.9922 32.3436 24.3173 33.1944 22.5351 33.195C20.6342 33.1794 18.8432 32.3013 17.6666 30.8082C16.2674 32.8111 13.7298 33.6737 11.3998 32.9383C9.06982 32.203 7.48705 30.0401 7.49104 27.5968V15.8001C7.49104 15.2011 7.97664 14.7155 8.57566 14.7155H54.0907C54.6898 14.7155 55.1754 15.2011 55.1754 15.8001C55.1754 16.3991 54.6898 16.8847 54.0907 16.8847H9.6652V27.5968C9.6652 28.8195 10.3175 29.9494 11.3764 30.5607C12.4353 31.1721 13.7399 31.1721 14.7988 30.5607C15.8577 29.9494 16.51 28.8195 16.51 27.5968C16.51 26.9978 16.9956 26.5122 17.5946 26.5122C18.1936 26.5122 18.6792 26.9978 18.6792 27.5968C18.6809 29.3964 20.518 31.0323 22.5417 31.0323C24.432 31.0224 25.9592 29.4872 25.9591 27.5968C25.9591 26.9978 26.4447 26.5122 27.0438 26.5122C27.6428 26.5122 28.1284 26.9978 28.1284 27.5968C28.1284 29.4874 29.661 31.02 31.5516 31.02C33.4422 31.02 34.9748 29.4874 34.9748 27.5968C34.9748 26.9978 35.4604 26.5122 36.0594 26.5122C36.6585 26.5122 37.1441 26.9978 37.1441 27.5968C37.1441 29.4874 38.6767 31.02 40.5673 31.02C42.4578 31.02 43.9905 29.4874 43.9905 27.5968C43.9905 26.9978 44.4761 26.5122 45.0751 26.5122C45.6741 26.5122 46.1597 26.9978 46.1597 27.5968C46.1588 30.6857 43.6569 33.1905 40.5681 33.195Z" fill="#0376BC"/>
<path d="M54.0906 16.8861H8.58039C8.21511 16.8863 7.87425 16.7027 7.67354 16.3975C7.47282 16.0923 7.43921 15.7066 7.58411 15.3712L11.1014 7.20955C11.2731 6.81214 11.6647 6.55492 12.0977 6.55518H50.2739C50.6946 6.5555 51.0772 6.79906 51.2555 7.1801L55.0738 15.3418C55.2309 15.6776 55.2056 16.0704 55.0067 16.3833C54.8079 16.6962 54.4629 16.8858 54.0922 16.8861H54.0906ZM10.2294 14.7152H52.3859L49.5835 8.72443H12.8109L10.2294 14.7152Z" fill="#0376BC"/>
<path d="M49.9141 8.72446H12.0977C11.4987 8.72446 11.0131 8.23885 11.0131 7.63983V1.08463C11.0131 0.485604 11.4987 0 12.0977 0H49.9141C50.5131 0 50.9987 0.485604 50.9987 1.08463V7.6382C50.9991 7.92614 50.8851 8.20244 50.6816 8.4062C50.4782 8.60996 50.202 8.72446 49.9141 8.72446ZM13.1824 6.55357H48.8295V2.17089H13.1824V6.55357Z" fill="#0376BC"/>
<path d="M48.9936 8.58668H12.9796C12.4091 8.58668 11.9466 8.27498 11.9466 7.89048V3.68289C11.9466 3.29839 12.4091 2.98669 12.9796 2.98669H48.9936C49.564 2.98669 50.0265 3.29839 50.0265 3.68289V7.88943C50.0269 8.07426 49.9183 8.25161 49.7245 8.38239C49.5307 8.51318 49.2678 8.58668 48.9936 8.58668ZM14.0125 7.19324H47.9606V4.38013H14.0125V7.19324Z" fill="#0376BC"/>
<path d="M36.3964 55.9996H25.6139C25.0149 55.9996 24.5293 55.514 24.5293 54.915V35.5504C24.5293 34.9514 25.0149 34.4658 25.6139 34.4658H36.3964C36.9954 34.4658 37.481 34.9514 37.481 35.5504V54.9166C37.4801 55.515 36.9948 55.9996 36.3964 55.9996ZM26.6986 53.8304H35.3118V36.635H26.6986V53.8304Z" fill="#0376BC"/>
<path d="M17.6617 29.5207C17.0627 29.5207 16.5771 29.0351 16.5771 28.4361V15.8001C16.5771 15.2011 17.0627 14.7155 17.6617 14.7155C18.2607 14.7155 18.7463 15.2011 18.7463 15.8001V28.4361C18.7463 28.7237 18.6321 28.9996 18.4287 29.203C18.2253 29.4064 17.9494 29.5207 17.6617 29.5207Z" fill="#0376BC"/>
<path d="M27.0912 30.3387C26.4922 30.3387 26.0065 29.8531 26.0065 29.254V15.8001C26.0065 15.2011 26.4922 14.7155 27.0912 14.7155C27.6902 14.7155 28.1758 15.2011 28.1758 15.8001V29.254C28.1758 29.5417 28.0615 29.8176 27.8581 30.021C27.6547 30.2244 27.3788 30.3387 27.0912 30.3387Z" fill="#0376BC"/>
<path d="M36.0004 28.688C35.4014 28.688 34.9158 28.2024 34.9158 27.6034V15.8001C34.9158 15.2011 35.4014 14.7155 36.0004 14.7155C36.5995 14.7155 37.0851 15.2011 37.0851 15.8001V27.5968C37.0868 27.8856 36.9733 28.1632 36.7697 28.368C36.5661 28.5728 36.2892 28.688 36.0004 28.688Z" fill="#0376BC"/>
<path d="M45.0275 29.5207C44.4284 29.5207 43.9428 29.0351 43.9428 28.4361V15.8001C43.9428 15.2011 44.4284 14.7155 45.0275 14.7155C45.6265 14.7155 46.1121 15.2011 46.1121 15.8001V28.4361C46.1121 28.7237 45.9978 28.9996 45.7944 29.203C45.591 29.4064 45.3151 29.5207 45.0275 29.5207Z" fill="#0376BC"/>
<path d="M52.2061 56H10.5993C10.0003 56 9.51468 55.5144 9.51468 54.9154V31.9894C9.51468 31.3903 10.0003 30.9047 10.5993 30.9047C11.1983 30.9047 11.6839 31.3903 11.6839 31.9894V53.8291H52.2061C52.8051 53.8291 53.2908 54.3147 53.2908 54.9138C53.2908 55.5128 52.8051 55.9984 52.2061 55.9984V56Z" fill="#0376BC"/>
<path d="M40.5681 33.195C38.786 33.1941 37.1112 32.3434 36.0594 30.9047C35.0072 32.3419 33.3328 33.1913 31.5516 33.1913C29.7704 33.1913 28.096 32.3419 27.0438 30.9047C25.9922 32.3436 24.3173 33.1944 22.5351 33.195C20.6342 33.1794 18.8432 32.3013 17.6666 30.8082C16.2674 32.8111 13.7298 33.6737 11.3998 32.9383C9.06982 32.203 7.48705 30.0401 7.49104 27.5968V15.8001C7.49104 15.2011 7.97664 14.7155 8.57566 14.7155H54.0907C54.6898 14.7155 55.1754 15.2011 55.1754 15.8001C55.1754 16.3991 54.6898 16.8847 54.0907 16.8847H9.6652V27.5968C9.6652 28.8195 10.3175 29.9494 11.3764 30.5607C12.4353 31.1721 13.7399 31.1721 14.7988 30.5607C15.8577 29.9494 16.51 28.8195 16.51 27.5968C16.51 26.9978 16.9956 26.5122 17.5946 26.5122C18.1936 26.5122 18.6792 26.9978 18.6792 27.5968C18.6809 29.3964 20.518 31.0323 22.5417 31.0323C24.432 31.0224 25.9592 29.4872 25.9591 27.5968C25.9591 26.9978 26.4447 26.5122 27.0438 26.5122C27.6428 26.5122 28.1284 26.9978 28.1284 27.5968C28.1284 29.4874 29.661 31.02 31.5516 31.02C33.4422 31.02 34.9748 29.4874 34.9748 27.5968C34.9748 26.9978 35.4604 26.5122 36.0594 26.5122C36.6585 26.5122 37.1441 26.9978 37.1441 27.5968C37.1441 29.4874 38.6767 31.02 40.5673 31.02C42.4578 31.02 43.9905 29.4874 43.9905 27.5968C43.9905 26.9978 44.4761 26.5122 45.0751 26.5122C45.6741 26.5122 46.1597 26.9978 46.1597 27.5968C46.1588 30.6857 43.6569 33.1905 40.5681 33.195Z" fill="#0376BC"/>
<path d="M8.58058 28.688C8.29093 28.6893 8.01279 28.5747 7.80813 28.3698C7.60347 28.1648 7.4893 27.8865 7.49105 27.5968V15.8001C7.49105 15.2011 7.97665 14.7155 8.57567 14.7155H54.0908C54.6898 14.7155 55.1754 15.2011 55.1754 15.8001V24.2759C55.1754 24.8749 54.6898 25.3605 54.0908 25.3605C53.4917 25.3605 53.0061 24.8749 53.0061 24.2759V16.8863H9.66521V27.5968C9.66695 27.8856 9.55345 28.1632 9.34985 28.368C9.14626 28.5728 8.86938 28.688 8.58058 28.688Z" fill="#0376BC"/>
<path d="M40.1344 33.1948C38.4229 33.2229 36.8191 32.3616 35.8973 30.9192C34.7187 32.3463 32.9695 33.1793 31.1187 33.1948C29.4071 33.2232 27.8032 32.3618 26.8817 30.9192C25.7031 32.3463 23.9539 33.1793 22.1031 33.1948C20.3211 33.1936 18.6463 32.3429 17.5944 30.9045C17.2478 31.3782 16.8288 31.7944 16.3528 32.138C15.8667 32.4881 15.1888 32.3778 14.8387 31.8917C14.4886 31.4057 14.5988 30.7278 15.0849 30.3777C15.9784 29.7328 16.5083 28.6985 16.5098 27.5966C16.5098 27.2091 16.7165 26.851 17.0521 26.6573C17.3877 26.4635 17.8012 26.4635 18.1368 26.6573C18.4723 26.851 18.6791 27.2091 18.6791 27.5966C18.6791 29.4895 20.2102 31.0258 22.1031 31.0321C24.1218 31.0321 25.959 29.3961 25.959 27.608C25.959 27.2205 26.1657 26.8625 26.5013 26.6687C26.8369 26.475 27.2504 26.475 27.5859 26.6687C27.9215 26.8625 28.1283 27.2205 28.1283 27.608C28.1283 29.2571 29.064 31.0321 31.1171 31.0321C33.1375 31.0321 34.9747 29.3961 34.9747 27.5966C34.9747 26.9976 35.4603 26.512 36.0593 26.512C36.6583 26.512 37.1439 26.9976 37.1439 27.5966C37.1439 29.2456 38.0797 31.0206 40.1344 31.0206C42.1532 31.0206 43.9903 29.3847 43.9903 27.5966C43.9903 26.9976 44.4759 26.512 45.0749 26.512C45.674 26.512 46.1596 26.9976 46.1596 27.5966C46.1612 30.5822 43.3441 33.1948 40.1344 33.1948Z" fill="#0376BC"/>
<path d="M17.6617 29.5207C17.0627 29.5207 16.5771 29.0351 16.5771 28.4361V15.8001C16.5771 15.2011 17.0627 14.7155 17.6617 14.7155C18.2607 14.7155 18.7463 15.2011 18.7463 15.8001V28.4361C18.7463 28.7237 18.6321 28.9996 18.4287 29.203C18.2253 29.4064 17.9494 29.5207 17.6617 29.5207Z" fill="#0376BC"/>
<path d="M27.0912 30.3387C26.4922 30.3387 26.0065 29.8531 26.0065 29.254V15.8001C26.0065 15.2011 26.4922 14.7155 27.0912 14.7155C27.6902 14.7155 28.1758 15.2011 28.1758 15.8001V29.254C28.1758 29.5417 28.0615 29.8176 27.8581 30.021C27.6547 30.2244 27.3788 30.3387 27.0912 30.3387Z" fill="#0376BC"/>
<path d="M36.0004 28.688C35.4014 28.688 34.9158 28.2024 34.9158 27.6034V15.8001C34.9158 15.2011 35.4014 14.7155 36.0004 14.7155C36.5995 14.7155 37.0851 15.2011 37.0851 15.8001V27.5968C37.0868 27.8856 36.9733 28.1632 36.7697 28.368C36.5661 28.5728 36.2892 28.688 36.0004 28.688Z" fill="#0376BC"/>
<path d="M45.0275 29.5207C44.4284 29.5207 43.9428 29.0351 43.9428 28.4361V15.8001C43.9428 15.2011 44.4284 14.7155 45.0275 14.7155C45.6265 14.7155 46.1121 15.2011 46.1121 15.8001V28.4361C46.1121 28.7237 45.9978 28.9996 45.7944 29.203C45.591 29.4064 45.3151 29.5207 45.0275 29.5207Z" fill="#0376BC"/>
<path d="M61.5865 55.9998H1.08463C0.697127 55.9998 0.339062 55.7931 0.145312 55.4575C-0.0484375 55.1219 -0.0484375 54.7085 0.145312 54.3729C0.339062 54.0373 0.697127 53.8306 1.08463 53.8306H61.5865C62.1856 53.8306 62.6712 54.3162 62.6712 54.9152C62.6712 55.5142 62.1856 55.9998 61.5865 55.9998Z" fill="#0376BC"/>
<path d="M56.1732 55.6285C47.2159 55.6285 39.9545 48.3671 39.9545 39.4098C39.9545 30.4525 47.2159 23.1911 56.1732 23.1911C65.1306 23.1911 72.3919 30.4525 72.3919 39.4098C72.382 48.363 65.1265 55.6186 56.1732 55.6285ZM56.1732 25.3636C48.4139 25.3636 42.1238 31.6538 42.1238 39.4131C42.1238 47.1724 48.4139 53.4625 56.1732 53.4625C63.9325 53.4625 70.2227 47.1724 70.2227 39.4131C70.2137 31.657 63.9293 25.3712 56.1732 25.3604V25.3636Z" fill="#0376BC"/>
<path d="M57.4933 38.5576C59.5268 39.2757 60.3464 40.2148 60.3464 41.7525C60.3464 43.1218 59.4728 44.3112 57.8647 44.7839C57.5332 44.8818 57.3056 45.186 57.3052 45.5316V45.8718C57.3052 46.3046 56.9544 46.6555 56.5216 46.6555H56.4152C55.9825 46.6555 55.6316 46.3046 55.6316 45.8718V45.7557C55.6298 45.3614 55.3358 45.0295 54.9445 44.9803C54.4135 44.9122 53.8914 44.7872 53.3871 44.6073C53.0078 44.4673 52.7958 44.0631 52.8963 43.6715L53.0141 43.2118C53.0702 42.9959 53.2155 42.8141 53.4139 42.7119C53.6122 42.6098 53.8446 42.5971 54.0529 42.6769C54.7009 42.9245 55.3879 43.0542 56.0815 43.0597C57.0631 43.0597 57.7174 42.6834 57.7174 41.9996C57.7174 41.3452 57.1711 40.9411 55.9065 40.5125C54.0775 39.8974 52.8309 39.0402 52.8309 37.3862C52.8309 36.0399 53.68 34.9552 55.1687 34.4841C55.4948 34.3826 55.7173 34.0813 55.7183 33.7397V33.5058C55.7183 33.298 55.8009 33.0986 55.9479 32.9517C56.0948 32.8047 56.2941 32.7222 56.5019 32.7222H56.6083C56.8161 32.7222 57.0154 32.8047 57.1624 32.9517C57.3093 33.0986 57.3919 33.298 57.3919 33.5058C57.3958 33.9038 57.6951 34.2367 58.0904 34.2829C58.4627 34.3284 58.83 34.4072 59.1882 34.5184C59.5795 34.6475 59.8025 35.0591 59.6969 35.4575L59.5955 35.855C59.5393 36.0671 59.3974 36.2463 59.2037 36.3497C59.0101 36.453 58.7822 36.4712 58.5747 36.3998C58.039 36.2231 57.4783 36.1341 56.9142 36.1364C55.8034 36.1364 55.4419 36.6141 55.4419 37.0934C55.4419 37.6578 56.039 38.0161 57.4917 38.5657" fill="#0376BC"/>
</svg>
