<svg width="30" height="24" viewBox="0 0 30 24" fill="none" xmlns="http://www.w3.org/2000/svg">
<path fill-rule="evenodd" clip-rule="evenodd" d="M2.82495 -1.02704e-05H27.3474C28.0425 -0.00432604 28.7112 0.266691 29.208 0.754068C29.7048 1.24145 29.9894 1.90574 30 2.6024V21.0763C29.9917 21.7796 29.7098 22.4518 29.2144 22.9499C28.7189 23.448 28.049 23.7325 27.3474 23.743H2.82495C2.1233 23.7325 1.45342 23.448 0.957969 22.9499C0.462518 22.4518 0.18064 21.7796 0.172363 21.0763V2.6024C0.182915 1.90574 0.467547 1.24145 0.964322 0.754068C1.4611 0.266691 2.12981 -0.00432604 2.82495 -1.02704e-05ZM10.0935 7.68674H14.1005V18.0401H18.7164C19.3351 18.0411 19.9524 17.9819 20.5596 17.8634C21.1711 17.7891 21.7291 17.4777 22.1143 16.996C22.5188 16.5076 22.814 15.9379 22.9798 15.3253C23.1661 14.7243 23.2633 14.0992 23.2683 13.4699C23.3215 13.2056 23.343 12.936 23.3324 12.6667V10.9879C23.343 10.6973 23.3215 10.4064 23.2683 10.1205C23.2354 9.51489 23.1387 8.9145 22.9798 8.32931C22.8381 7.73832 22.539 7.19698 22.1143 6.76304C21.7169 6.28583 21.1681 5.95977 20.5596 5.83935C19.9518 5.72483 19.3349 5.66569 18.7164 5.66264H10.0935V2.40963H18.7485C21.6335 2.40963 23.7652 3.10842 25.2077 4.48995C26.6502 5.87148 27.4596 8.13654 27.6118 11.0843C27.6645 11.3106 27.6861 11.543 27.6759 11.7751V12.4739C27.6658 13.8078 27.4523 15.1323 27.0429 16.4016C26.6151 17.6823 25.831 18.8138 24.7829 19.6626C23.9851 20.3319 23.0312 20.7878 22.0101 20.9879C20.9875 21.2213 19.9416 21.3372 18.8928 21.3333H10.0935V7.68674ZM8.01794 21.3414V2.40963H3.86676V21.3333L8.01794 21.3414Z" fill="#C2D2D9"/>
</svg>
