<svg width="79" height="24" viewBox="0 0 79 24" fill="none" xmlns="http://www.w3.org/2000/svg">
<path d="M0 12.8518V23.7112H5.01668V13.9923H19.2333V13.8799C19.2974 13.5345 19.4096 13.1811 19.4657 12.8357C19.7159 11.9167 20.284 11.1167 21.0684 10.5787C21.8177 10.0657 22.7015 9.78623 23.6088 9.77548C23.8973 9.77548 24.1858 9.8317 24.4743 9.8317C24.751 9.89928 25.0196 9.99621 25.2757 10.1209C26.1977 10.4796 26.9427 11.186 27.3513 12.0887C27.7747 12.9707 27.9939 13.9372 27.9924 14.916V15.0927C28.0028 15.4607 27.9814 15.8289 27.9283 16.1931C27.8861 16.5632 27.8111 16.9288 27.7039 17.2855C27.4324 18.1792 26.8676 18.9547 26.1011 19.4863C25.3534 20.0024 24.4686 20.2822 23.5608 20.2895C23.3364 20.2895 23.0479 20.2333 22.8155 20.2333C22.556 20.1859 22.3032 20.1077 22.0622 20.0004C21.5823 19.8403 21.1405 19.583 20.7641 19.2445C20.3877 18.9059 20.0849 18.4934 19.8744 18.0325C19.5486 17.3988 19.3319 16.7144 19.2333 16.0084H14.425C14.5379 16.9392 14.7695 17.8516 15.1141 18.7233C15.5145 19.8103 16.1462 20.797 16.9653 21.6148C17.8289 22.4454 18.8746 23.0616 20.0186 23.414C21.1159 23.7875 22.2657 23.9827 23.4245 23.9923H23.8893C25.0655 23.9462 26.2289 23.7298 27.3433 23.3498C28.3942 22.9705 29.3569 22.3801 30.1722 21.6148C31.0736 20.7769 31.7489 19.7242 32.1356 18.5546C32.5734 17.4119 32.8172 16.2037 32.8568 14.9803C32.8471 13.7565 32.6331 12.543 32.2237 11.3899C31.8193 10.2614 31.1452 9.24927 30.2603 8.44214C29.4394 7.62933 28.4562 6.99976 27.3754 6.59475C26.261 6.2041 25.0934 5.98738 23.9134 5.95218H23.6249C22.4065 5.96969 21.1971 6.1645 20.0347 6.5305C18.9165 6.95725 17.8967 7.60767 17.0375 8.44214C16.5708 8.86926 16.1613 9.35524 15.8194 9.88793H5.01668V4.10479H19.4977V0.000376272H0V12.8518ZM68.8231 23.7112H73.6314V9.77548H78.5359V6.3056H73.6153V4.85981C73.6195 4.47766 73.7728 4.11235 74.0424 3.84211C74.3121 3.57187 74.6766 3.41821 75.0578 3.41403H78.5359V0.000376272H73.439C73.1275 -0.0212979 72.8147 0.0168692 72.5174 0.112826C71.4755 0.361432 70.5462 0.951596 69.8769 1.78971C69.2077 2.62783 68.8368 3.66592 68.8231 4.73933V6.3056H66.1144V9.77548H68.8231V23.7112ZM64.4956 23.7112V6.3056H59.7674V23.7112H64.4956ZM58.2127 23.7112H54.2058C53.8956 23.6988 53.5872 23.6585 53.2842 23.5907C52.2434 23.329 51.3198 22.7259 50.6605 21.8773C50.0012 21.0287 49.644 19.9835 49.6459 18.908V0.000376272H54.4542V6.3056H58.2608V9.77548H54.4061V18.7313C54.4019 18.917 54.4341 19.1016 54.5011 19.2748C54.5681 19.4479 54.6684 19.6062 54.7964 19.7404C54.9244 19.8747 55.0776 19.9824 55.2471 20.0573C55.4167 20.1322 55.5993 20.1729 55.7845 20.1771H58.1887L58.2127 23.7112ZM36.0624 6.36182H41.7763C42.5907 6.35653 43.3982 6.51248 44.1524 6.82073C44.9066 7.12897 45.5926 7.58345 46.1712 8.15807C46.7497 8.73269 47.2093 9.41615 47.5237 10.1692C47.838 10.9223 48.0009 11.7302 48.003 12.5466H43.4431C43.4431 11.1008 42.4574 9.8317 41.3034 9.8317H38.9394V23.7112H34.3875V6.36182H36.0624Z" fill="#C2D2D9"/>
</svg>
