<svg width="126" height="20" viewBox="0 0 126 20" fill="none" xmlns="http://www.w3.org/2000/svg">
<path d="M12.555 15.9H6.00498L4.95498 19H0.47998L6.82998 1.45H11.78L18.13 19H13.605L12.555 15.9ZM11.455 12.6L9.27998 6.175L7.12998 12.6H11.455Z" fill="#142D53"/>
<path d="M30.8076 10C31.8243 10.2167 32.6409 10.725 33.2576 11.525C33.8743 12.3083 34.1826 13.2083 34.1826 14.225C34.1826 15.6917 33.6659 16.8583 32.6326 17.725C31.6159 18.575 30.1909 19 28.3576 19H20.1826V1.45H28.0826C29.8659 1.45 31.2576 1.85833 32.2576 2.675C33.2743 3.49167 33.7826 4.6 33.7826 6C33.7826 7.03333 33.5076 7.89167 32.9576 8.575C32.4243 9.25833 31.7076 9.73333 30.8076 10ZM24.4576 8.55H27.2576C27.9576 8.55 28.4909 8.4 28.8576 8.1C29.2409 7.78333 29.4326 7.325 29.4326 6.725C29.4326 6.125 29.2409 5.66667 28.8576 5.35C28.4909 5.03333 27.9576 4.875 27.2576 4.875H24.4576V8.55ZM27.6076 15.55C28.3243 15.55 28.8743 15.3917 29.2576 15.075C29.6576 14.7417 29.8576 14.2667 29.8576 13.65C29.8576 13.0333 29.6493 12.55 29.2326 12.2C28.8326 11.85 28.2743 11.675 27.5576 11.675H24.4576V15.55H27.6076Z" fill="#142D53"/>
<path d="M36.0571 10.2C36.0571 8.46667 36.4321 6.925 37.1821 5.575C37.9321 4.20833 38.9738 3.15 40.3071 2.4C41.6571 1.63333 43.1821 1.25 44.8821 1.25C46.9654 1.25 48.7488 1.8 50.2321 2.9C51.7154 4 52.7071 5.5 53.2071 7.4H48.5071C48.1571 6.66667 47.6571 6.10833 47.0071 5.725C46.3738 5.34167 45.6488 5.15 44.8321 5.15C43.5154 5.15 42.4488 5.60833 41.6321 6.525C40.8154 7.44167 40.4071 8.66667 40.4071 10.2C40.4071 11.7333 40.8154 12.9583 41.6321 13.875C42.4488 14.7917 43.5154 15.25 44.8321 15.25C45.6488 15.25 46.3738 15.0583 47.0071 14.675C47.6571 14.2917 48.1571 13.7333 48.5071 13H53.2071C52.7071 14.9 51.7154 16.4 50.2321 17.5C48.7488 18.5833 46.9654 19.125 44.8821 19.125C43.1821 19.125 41.6571 18.75 40.3071 18C38.9738 17.2333 37.9321 16.175 37.1821 14.825C36.4321 13.475 36.0571 11.9333 36.0571 10.2Z" fill="#142D53"/>
<path d="M71.9879 10C73.0046 10.2167 73.8212 10.725 74.4379 11.525C75.0546 12.3083 75.3629 13.2083 75.3629 14.225C75.3629 15.6917 74.8462 16.8583 73.8129 17.725C72.7962 18.575 71.3712 19 69.5379 19H61.3629V1.45H69.2629C71.0462 1.45 72.4379 1.85833 73.4379 2.675C74.4546 3.49167 74.9629 4.6 74.9629 6C74.9629 7.03333 74.6879 7.89167 74.1379 8.575C73.6046 9.25833 72.8879 9.73333 71.9879 10ZM65.6379 8.55H68.4379C69.1379 8.55 69.6712 8.4 70.0379 8.1C70.4212 7.78333 70.6129 7.325 70.6129 6.725C70.6129 6.125 70.4212 5.66667 70.0379 5.35C69.6712 5.03333 69.1379 4.875 68.4379 4.875H65.6379V8.55ZM68.7879 15.55C69.5046 15.55 70.0546 15.3917 70.4379 15.075C70.8379 14.7417 71.0379 14.2667 71.0379 13.65C71.0379 13.0333 70.8296 12.55 70.4129 12.2C70.0129 11.85 69.4546 11.675 68.7379 11.675H65.6379V15.55H68.7879Z" fill="#142D53"/>
<path d="M77.1124 12C77.1124 10.5667 77.3791 9.30833 77.9124 8.225C78.4624 7.14167 79.2041 6.30833 80.1374 5.725C81.0707 5.14167 82.1124 4.85 83.2624 4.85C84.2457 4.85 85.1041 5.05 85.8374 5.45C86.5874 5.85 87.1624 6.375 87.5624 7.025V5.05H91.8374V19H87.5624V17.025C87.1457 17.675 86.5624 18.2 85.8124 18.6C85.0791 19 84.2207 19.2 83.2374 19.2C82.1041 19.2 81.0707 18.9083 80.1374 18.325C79.2041 17.725 78.4624 16.8833 77.9124 15.8C77.3791 14.7 77.1124 13.4333 77.1124 12ZM87.5624 12.025C87.5624 10.9583 87.2624 10.1167 86.6624 9.5C86.0791 8.88333 85.3624 8.575 84.5124 8.575C83.6624 8.575 82.9374 8.88333 82.3374 9.5C81.7541 10.1 81.4624 10.9333 81.4624 12C81.4624 13.0667 81.7541 13.9167 82.3374 14.55C82.9374 15.1667 83.6624 15.475 84.5124 15.475C85.3624 15.475 86.0791 15.1667 86.6624 14.55C87.2624 13.9333 87.5624 13.0917 87.5624 12.025Z" fill="#142D53"/>
<path d="M103.55 4.9C105.184 4.9 106.484 5.43333 107.45 6.5C108.434 7.55 108.925 9 108.925 10.85V19H104.675V11.425C104.675 10.4917 104.434 9.76667 103.95 9.25C103.467 8.73333 102.817 8.475 102 8.475C101.184 8.475 100.534 8.73333 100.05 9.25C99.5668 9.76667 99.3252 10.4917 99.3252 11.425V19H95.0502V5.05H99.3252V6.9C99.7585 6.28333 100.342 5.8 101.075 5.45C101.809 5.08333 102.634 4.9 103.55 4.9Z" fill="#142D53"/>
<path d="M120.541 19L116.291 13.15V19H112.016V0.5H116.291V10.725L120.516 5.05H125.791L119.991 12.05L125.841 19H120.541Z" fill="#142D53"/>
</svg>
